<svg xmlns="http://www.w3.org/2000/svg" width="29.278" height="19.527" viewBox="0 0 29.278 19.527">
  <path id="Icon_ionic-ios-arrow-round-back" data-name="Icon ionic-ios-arrow-round-back" d="M18.489,11.626A1.329,1.329,0,0,1,18.5,13.5L12.326,19.69H35.848a1.322,1.322,0,0,1,0,2.644H12.326l6.183,6.193A1.338,1.338,0,0,1,18.5,30.4a1.317,1.317,0,0,1-1.861-.01l-8.38-8.441h0a1.485,1.485,0,0,1-.275-.417,1.262,1.262,0,0,1-.1-.508,1.325,1.325,0,0,1,.376-.925l8.38-8.441A1.3,1.3,0,0,1,18.489,11.626Z" transform="translate(-7.882 -11.252)" fill="#fff"/>
</svg>
